<svg width="24" height="24" viewBox="0 0 24 24" fill="none" xmlns="http://www.w3.org/2000/svg">
<path fill-rule="evenodd" clip-rule="evenodd" d="M12.707 15.7072C12.5194 15.8947 12.2651 16 12 16C11.7348 16 11.4805 15.8947 11.293 15.7072L5.63598 10.0502C5.54047 9.95797 5.46428 9.84762 5.41188 9.72562C5.35947 9.60361 5.33188 9.47239 5.33073 9.33961C5.32957 9.20684 5.35487 9.07516 5.40516 8.95226C5.45544 8.82936 5.52969 8.71771 5.62358 8.62382C5.71747 8.52993 5.82913 8.45567 5.95202 8.40539C6.07492 8.35511 6.2066 8.32981 6.33938 8.33096C6.47216 8.33212 6.60338 8.3597 6.72538 8.41211C6.84739 8.46452 6.95773 8.5407 7.04998 8.63621L12 13.5862L16.95 8.63621C17.1386 8.45406 17.3912 8.35326 17.6534 8.35554C17.9156 8.35782 18.1664 8.46299 18.3518 8.64839C18.5372 8.8338 18.6424 9.08462 18.6447 9.34681C18.6469 9.60901 18.5461 9.86161 18.364 10.0502L12.707 15.7072Z" fill="black"/>
</svg>
