<svg width="14" height="16" viewBox="0 0 14 16" fill="none" xmlns="http://www.w3.org/2000/svg">
<path d="M8.46997 3.53001C8.6106 3.67046 8.80122 3.74935 8.99997 3.74935C9.19872 3.74935 9.38935 3.67046 9.52997 3.53001L10.25 2.81001V13C10.25 13.1989 10.329 13.3897 10.4696 13.5303C10.6103 13.671 10.8011 13.75 11 13.75C11.1989 13.75 11.3896 13.671 11.5303 13.5303C11.671 13.3897 11.75 13.1989 11.75 13V2.81001L12.47 3.53001C12.5386 3.6037 12.6214 3.6628 12.7134 3.70379C12.8054 3.74478 12.9047 3.76683 13.0054 3.7686C13.1062 3.77038 13.2062 3.75186 13.2996 3.71413C13.393 3.67641 13.4778 3.62027 13.549 3.54905C13.6202 3.47783 13.6764 3.393 13.7141 3.29961C13.7518 3.20622 13.7703 3.10619 13.7686 3.00549C13.7668 2.90479 13.7447 2.80547 13.7038 2.71347C13.6628 2.62147 13.6037 2.53867 13.53 2.47001L11.53 0.470011C11.3893 0.329561 11.1987 0.250671 11 0.250671C10.8012 0.250671 10.6106 0.329561 10.47 0.470011L8.46997 2.47001C8.32952 2.61064 8.25063 2.80126 8.25063 3.00001C8.25063 3.19876 8.32952 3.38939 8.46997 3.53001ZM3.74997 13.19L4.46997 12.47C4.53863 12.3963 4.62143 12.3372 4.71343 12.2962C4.80543 12.2552 4.90475 12.2332 5.00545 12.2314C5.10615 12.2296 5.20618 12.2482 5.29957 12.2859C5.39296 12.3236 5.47779 12.3798 5.54901 12.451C5.62023 12.5222 5.67637 12.607 5.71409 12.7004C5.75181 12.7938 5.77034 12.8938 5.76856 12.9945C5.76679 13.0952 5.74474 13.1946 5.70375 13.2866C5.66276 13.3785 5.60366 13.4614 5.52997 13.53L3.52997 15.53C3.38934 15.6705 3.19872 15.7494 2.99997 15.7494C2.80122 15.7494 2.6106 15.6705 2.46997 15.53L0.46997 13.53C0.396283 13.4614 0.337181 13.3785 0.296189 13.2866C0.255197 13.1946 0.233156 13.0952 0.231379 12.9945C0.229602 12.8938 0.248127 12.7938 0.285848 12.7004C0.323569 12.607 0.379713 12.5222 0.450932 12.451C0.522151 12.3798 0.606984 12.3236 0.700373 12.2859C0.793761 12.2482 0.89379 12.2296 0.994493 12.2314C1.0952 12.2332 1.19451 12.2552 1.28651 12.2962C1.37851 12.3372 1.46131 12.3963 1.52997 12.47L2.24997 13.19V3.00001C2.24997 2.8011 2.32899 2.61033 2.46964 2.46968C2.61029 2.32903 2.80106 2.25001 2.99997 2.25001C3.19888 2.25001 3.38965 2.32903 3.5303 2.46968C3.67095 2.61033 3.74997 2.8011 3.74997 3.00001V13.19Z" fill="black"/>
</svg>
