<svg width="24" height="24" viewBox="0 0 24 24" fill="none" xmlns="http://www.w3.org/2000/svg">
<path d="M12 17.675C12.2833 17.675 12.521 17.579 12.713 17.387C12.905 17.195 13.0007 16.9577 13 16.675V13.475L13.9 14.375C14.0833 14.5583 14.3167 14.65 14.6 14.65C14.8833 14.65 15.1167 14.5583 15.3 14.375C15.4833 14.1917 15.575 13.9583 15.575 13.675C15.575 13.3917 15.4833 13.1583 15.3 12.975L12.7 10.4C12.5 10.2 12.2667 10.1 12 10.1C11.7333 10.1 11.5 10.2 11.3 10.4L8.7 12.975C8.51667 13.1583 8.425 13.3917 8.425 13.675C8.425 13.9583 8.51667 14.1917 8.7 14.375C8.88333 14.5583 9.11667 14.65 9.4 14.65C9.68333 14.65 9.91667 14.5583 10.1 14.375L11 13.475V16.675C11 16.9583 11.096 17.196 11.288 17.388C11.48 17.58 11.7173 17.6757 12 17.675ZM5 8.00001V19H19V8.00001H5ZM5 21C4.45 21 3.97933 20.8043 3.588 20.413C3.19667 20.0217 3.00067 19.5507 3 19V6.52501C3 6.29167 3.03767 6.06667 3.113 5.85001C3.18833 5.63334 3.30067 5.43334 3.45 5.25001L4.7 3.72501C4.88333 3.49167 5.11233 3.31234 5.387 3.18701C5.66167 3.06167 5.94933 2.99934 6.25 3.00001H17.75C18.05 3.00001 18.3377 3.06267 18.613 3.18801C18.8883 3.31334 19.1173 3.49234 19.3 3.72501L20.55 5.25001C20.7 5.43334 20.8127 5.63334 20.888 5.85001C20.9633 6.06667 21.0007 6.29167 21 6.52501V19C21 19.55 20.8043 20.021 20.413 20.413C20.0217 20.805 19.5507 21.0007 19 21H5ZM5.4 6.00001H18.6L17.75 5.00001H6.25L5.4 6.00001Z" fill="black"/>
</svg>
